HIERARCHY
ROOT Hips
{
 OFFSET 0.000000 0.000000 0.000000
 CHANNELS 6 Xposition Yposition Zposition Yrotation Xrotation Zrotation
 JOINT Chest
 {
  OFFSET 0.000000 9.585900 0.002600
  CHANNELS 3 Yrotation Xrotation Zrotation
  JOINT Chest2
  {
   OFFSET 0.000000 9.601200 -0.005300
   CHANNELS 3 Yrotation Xrotation Zrotation
   JOINT Chest3
   {
    OFFSET 0.000000 9.561800 0.000000
    CHANNELS 3 Yrotation Xrotation Zrotation
    JOINT Chest4
    {
     OFFSET 0.000000 9.552100 0.000000
     CHANNELS 3 Yrotation Xrotation Zrotation
     JOINT Neck
     {
      OFFSET 0.000000 14.453000 0.000000
      CHANNELS 3 Yrotation Xrotation Zrotation
      JOINT Head
      {
       OFFSET 0.000000 8.936500 -0.011300
       CHANNELS 3 Yrotation Xrotation Zrotation
       End Site
       {
        OFFSET 0.000000 17.073600 -0.006000
       }
      }
     }
     JOINT RightCollar
     {
      OFFSET -2.921100 9.558500 0.000000
      CHANNELS 3 Yrotation Xrotation Zrotation
      JOINT RightShoulder
      {
       OFFSET -13.519700 0.000000 0.000000
       CHANNELS 3 Yrotation Xrotation Zrotation
       JOINT RightElbow
       {
        OFFSET 0.000000 -29.696600 0.000000
        CHANNELS 3 Yrotation Xrotation Zrotation
        JOINT RightWrist
        {
         OFFSET 0.000000 -24.004700 0.000000
         CHANNELS 3 Yrotation Xrotation Zrotation
         End Site
         {
          OFFSET 0.000000 -17.728500 0.000000
         }
        }
       }
      }
     }
     JOINT LeftCollar
     {
      OFFSET 2.921100 9.558500 0.000000
      CHANNELS 3 Yrotation Xrotation Zrotation
      JOINT LeftShoulder
      {
       OFFSET 13.519700 0.000000 0.000000
       CHANNELS 3 Yrotation Xrotation Zrotation
       JOINT LeftElbow
       {
        OFFSET 0.000000 -29.696600 0.000000
        CHANNELS 3 Yrotation Xrotation Zrotation
        JOINT LeftWrist
        {
         OFFSET 0.000000 -24.004700 0.000000
         CHANNELS 3 Yrotation Xrotation Zrotation
         End Site
         {
          OFFSET 0.000000 -17.728500 0.000000
         }
        }
       }
      }
     }
    }
   }
  }
 }
 JOINT RightHip
 {
  OFFSET -7.771700 -0.012900 -0.001300
  CHANNELS 3 Yrotation Xrotation Zrotation
  JOINT RightKnee
  {
   OFFSET 0.000000 -40.869800 0.001200
   CHANNELS 3 Yrotation Xrotation Zrotation
   JOINT RightAnkle
   {
    OFFSET 0.000000 -39.717900 0.002100
    CHANNELS 3 Yrotation Xrotation Zrotation
    JOINT RightToe
    {
     OFFSET 0.000000 -4.965400 11.033500
     CHANNELS 3 Yrotation Xrotation Zrotation
     End Site
     {
      OFFSET 0.000000 -1.423100 5.872300
     }
    }
   }
  }
 }
 JOINT LeftHip
 {
  OFFSET 7.771700 -0.012900 -0.001300
  CHANNELS 3 Yrotation Xrotation Zrotation
  JOINT LeftKnee
  {
   OFFSET 0.000000 -40.869800 0.001200
   CHANNELS 3 Yrotation Xrotation Zrotation
   JOINT LeftAnkle
   {
    OFFSET 0.000000 -39.717900 0.002100
    CHANNELS 3 Yrotation Xrotation Zrotation
    JOINT LeftToe
    {
     OFFSET 0.000000 -4.965400 11.033500
     CHANNELS 3 Yrotation Xrotation Zrotation
     End Site
     {
      OFFSET 0.000000 -1.423100 5.872300
     }
    }
   }
  }
 }
}
MOTION
Frames: 9
Frame Time: 0.008333
-41.105275 50.318642 17.297599 165.012801 -8.814664 -0.470633 2.491320 8.546626 0.889326 0.118200 0.457011 0.001224 0.211325 0.796445 0.010282 2.096979 8.046692 0.163842 3.835164 18.274646 0.813279 6.763461 -1.817781 0.233981 2.911554 7.227690 0.664767 -8.162225 -16.496711 -6.279320 -61.226643 -74.892902 77.178428 -2.564055 3.971721 -25.981561 -5.777902 3.091041 -0.706285 22.982651 -9.475138 0.636823 66.193244 -73.767201 -87.043533 2.945849 4.656037 16.449634 -2.875200 -71.585213 -0.899822 -127.236207 79.809344 -126.781617 -4.387829 -17.396963 1.146386 -0.249682 0.753861 -0.118246 -6.029043 -76.362108 23.096768 102.367232 79.436920 98.682340 -16.080255 -23.595425 2.758713 -0.253796 -0.811517 -0.115952
-41.106392 50.317873 17.295959 165.005135 -8.819782 -0.469019 2.495963 8.548986 0.881991 0.117885 0.457779 0.002771 0.205859 0.794213 0.000562 2.101304 8.051575 0.168988 3.818226 18.271701 0.792265 6.769544 -1.819903 0.238296 2.908044 7.223247 0.661415 -8.164238 -16.496750 -6.286298 -61.236599 -74.882471 77.197011 -2.557351 3.970709 -25.974763 -5.771220 3.090226 -0.701645 22.988069 -9.469601 0.622647 66.202823 -73.765041 -87.072118 2.969098 4.636971 16.451564 -2.865888 -71.582196 -0.905100 -127.250721 79.810094 -126.797188 -4.379604 -17.395751 1.148527 -0.254565 0.752179 -0.119448 -6.044299 -76.354228 23.124514 102.407242 79.435895 98.717192 -16.105195 -23.628817 2.760020 -0.274065 -0.853501 -0.117431
-41.106178 50.316902 17.295331 164.998478 -8.820766 -0.479734 2.504606 8.547612 0.887673 0.116852 0.458799 0.007411 0.206804 0.793233 -0.004778 2.095993 8.050182 0.152237 3.822164 18.272005 0.800792 6.769546 -1.820423 0.242252 2.909242 7.223806 0.670621 -8.162434 -16.496844 -6.289512 -61.253297 -74.869524 77.216230 -2.543095 3.970385 -25.967186 -5.764645 3.092245 -0.694033 22.995535 -9.465459 0.610408 66.186267 -73.774773 -87.076293 2.963620 4.633500 16.459605 -2.895977 -71.580423 -0.870935 -127.249535 79.812285 -126.797676 -4.362159 -17.395340 1.150987 -0.270607 0.752511 -0.124740 -6.183616 -76.344570 23.273095 102.464313 79.432365 98.750207 -16.106472 -23.648239 2.751754 -0.282993 -0.847287 -0.111009
-41.108068 50.315583 17.295771 165.006132 -8.812397 -0.484760 2.498229 8.538749 0.888324 0.117385 0.456662 0.003184 0.206331 0.795311 -0.000871 2.098752 8.048966 0.145374 3.816707 18.271116 0.796979 6.766684 -1.820075 0.246450 2.899086 7.227253 0.669695 -8.157507 -16.501823 -6.298290 -61.257993 -74.864945 77.216269 -2.538385 3.972153 -25.954090 -5.769785 3.093401 -0.691018 22.998745 -9.465973 0.614117 66.184394 -73.772396 -87.081095 2.969364 4.628476 16.460131 -2.916154 -71.588112 -0.861039 -127.251433 79.814750 -126.800047 -4.359092 -17.399612 1.156373 -0.273892 0.757247 -0.130088 -6.252913 -76.350044 23.332932 102.448903 79.424048 98.723914 -16.112171 -23.647060 2.746726 -0.247263 -0.875560 -0.101779
-41.112363 50.313938 17.297679 165.026146 -8.792407 -0.482218 2.478274 8.519645 0.879406 0.124320 0.455193 -0.004132 0.199410 0.796594 0.006184 2.101123 8.047556 0.143606 3.813669 18.269490 0.791335 6.754525 -1.820364 0.239118 2.887875 7.225762 0.650417 -8.155378 -16.500702 -6.297208 -61.279622 -74.862494 77.244205 -2.547209 3.977632 -25.956858 -5.769144 3.093820 -0.692979 22.997408 -9.463039 0.608516 66.167394 -73.763947 -87.078957 2.979050 4.622783 16.459617 -2.920904 -71.607499 -0.879826 -127.254422 79.817444 -126.803438 -4.361646 -17.408397 1.159308 -0.271533 0.766869 -0.129807 -6.283029 -76.369537 23.341142 102.392408 79.411550 98.660133 -16.136448 -23.627145 2.727664 -0.245286 -0.907434 -0.082610
-41.117010 50.312648 17.297187 165.036003 -8.787084 -0.474052 2.475159 8.513447 0.866504 0.118680 0.453891 -0.005720 0.205888 0.793896 0.000793 2.099549 8.050638 0.150972 3.809758 18.269839 0.793001 6.735506 -1.826738 0.214363 2.877777 7.222894 0.643990 -8.154195 -16.499560 -6.309665 -61.244457 -74.885953 77.213800 -2.583553 3.975403 -25.957575 -5.774237 3.088274 -0.703826 22.984839 -9.454893 0.610497 66.111780 -73.751018 -87.051717 2.981135 4.611118 16.474730 -2.901581 -71.612962 -0.911978 -127.251954 79.815520 -126.802428 -4.367727 -17.420033 1.163584 -0.268684 0.777283 -0.126745 -6.263384 -76.376571 23.310868 102.368312 79.405242 98.633841 -16.159829 -23.603291 2.704747 -0.265112 -0.939546 -0.065933
-41.121196 50.311464 17.296445 165.046036 -8.784900 -0.469404 2.464375 8.508932 0.854713 0.120431 0.453162 -0.006521 0.204489 0.795576 0.003677 2.098658 8.046196 0.145265 3.805946 18.269794 0.789476 6.736061 -1.824814 0.217546 2.875889 7.225351 0.645602 -8.154329 -16.499143 -6.319034 -61.225220 -74.893429 77.193810 -2.585309 3.978380 -25.956692 -5.771748 3.090736 -0.705083 22.969097 -9.454494 0.614124 66.048804 -73.751964 -86.992792 2.979725 4.594407 16.486195 -2.891398 -71.614993 -0.933813 -127.252350 79.813944 -126.805320 -4.370507 -17.432115 1.166521 -0.266801 0.787069 -0.124309 -6.254456 -76.378180 23.293135 102.337286 79.398496 98.598723 -16.182327 -23.586848 2.688551 -0.283142 -0.952365 -0.072128
-41.125183 50.309901 17.298751 165.049285 -8.765520 -0.470364 2.465668 8.483409 0.844479 0.118504 0.456025 -0.000251 0.202508 0.797145 0.004157 2.103315 8.041582 0.136793 3.802184 18.271423 0.787989 6.720016 -1.821964 0.199232 2.871333 7.229889 0.656603 -8.154795 -16.499126 -6.322002 -61.212139 -74.900482 77.178897 -2.541422 3.983936 -25.956516 -5.775920 3.089883 -0.701568 22.956270 -9.450225 0.623754 65.976069 -73.753885 -86.926532 2.989320 4.578027 16.481738 -2.904085 -71.637046 -0.926532 -127.255617 79.817982 -126.810105 -4.376626 -17.430272 1.163754 -0.263409 0.789759 -0.121123 -6.218612 -76.403498 23.256990 102.287584 79.385134 98.557601 -16.198520 -23.571192 2.684059 -0.290361 -0.955396 -0.078543
-41.128431 50.308798 17.298950 165.058994 -8.758483 -0.473659 2.458427 8.469013 0.840980 0.117526 0.462088 0.003881 0.206087 0.792751 0.000047 2.102340 8.039404 0.133535 3.793171 18.261255 0.771486 6.718367 -1.809093 0.207810 2.867716 7.231264 0.656254 -8.156196 -16.500327 -6.333201 -61.198522 -74.891718 77.163031 -2.539615 3.981975 -25.952072 -5.779386 3.086896 -0.699507 22.951721 -9.442297 0.634078 65.880583 -73.759919 -86.844896 2.995601 4.564426 16.479159 -2.921514 -71.643805 -0.921129 -127.249390 79.817136 -126.806712 -4.371202 -17.434334 1.166990 -0.267094 0.792753 -0.122853 -6.183885 -76.416323 23.214107 102.253150 79.377159 98.534698 -16.197187 -23.561688 2.677729 -0.280866 -0.954972 -0.083703
